<?xml version="1.0" encoding="UTF-8"?>
<!DOCTYPE svg
PUBLIC "-//W3C//DTD SVG 1.1//EN"
       "http://www.w3.org/Graphics/SVG/1.1/DTD/svg11.dtd">
<svg version="1.1" xmlns="http://www.w3.org/2000/svg" xmlns:xlink="http://www.w3.org/1999/xlink" viewBox="0 0 129.542 157.999">
 <g>
  <rect height="157.999" opacity="0" width="129.542" x="0" y="0"/>
  <path d="M121.623 35.4453L121.623 132.415C121.623 145.314 115.148 151.839 102.398 151.839L55.5854 151.839C67.6786 150.48 80.1402 148.345 93.583 144.916C105.885 141.679 112.11 133.859 112.11 119.864L112.11 23.4424C112.11 21.3743 111.941 19.4253 111.607 17.6107C118.266 20.1989 121.623 26.1563 121.623 35.4453Z" fill="#FFFFFF"/>
  <path d="M104.142 23.4424L104.142 119.864C104.142 130.323 100.356 135.005 91.541 137.296C67.585 143.322 47.0156 145.265 25.4004 146.161C14.3936 146.709 7.91895 141.181 7.91895 130.871L7.91895 33.4033C7.91895 22.5957 14.3438 16.9677 24.3545 16.4697C47.0156 15.4238 67.585 12.3857 86.2119 8.50095C97.5674 5.96091 104.142 11.7881 104.142 23.4424ZM76.2012 39.9775L45.123 50.6357C42.8818 51.4326 41.5869 52.8769 41.5869 54.8691L41.7861 91.8242C41.7861 93.3183 41.1885 94.2148 39.8936 94.6631L34.8135 96.3564C28.2393 98.5976 24.9521 102.383 24.9521 107.662C24.9521 112.742 28.9365 115.88 34.5146 115.133C39.2959 114.485 46.7666 109.754 46.7666 100.191L46.7666 69.5117C46.7666 68.0176 46.9658 67.7685 48.3105 67.3203L74.5576 58.2558C76.0518 57.8076 76.5996 58.0068 76.5996 59.2021L76.7988 79.8213C76.7988 81.3154 76.002 82.3613 74.6074 82.8594L69.7266 84.6025C63.0527 86.9931 59.7158 90.6289 59.7158 95.709C59.7158 100.789 63.75 103.877 69.4277 103.08C74.209 102.433 81.5303 98.0498 81.5303 88.3877L81.5303 42.7168C81.5303 39.4795 79.9365 38.583 76.2012 39.9775Z" fill="#FFFFFF"/>
 </g>
</svg>
